<?xml version="1.0" encoding="utf-8"?>
<!-- Generator: Adobe Illustrator 16.0.0, SVG Export Plug-In . SVG Version: 6.00 Build 0)  -->
<!DOCTYPE svg PUBLIC "-//W3C//DTD SVG 1.1//EN" "http://www.w3.org/Graphics/SVG/1.1/DTD/svg11.dtd">
<svg version="1.1" id="Layer_1" xmlns="http://www.w3.org/2000/svg" xmlns:xlink="http://www.w3.org/1999/xlink" x="0px" y="0px"
	 width="41.713px" height="42.297px" viewBox="0 0 41.713 42.297" enable-background="new 0 0 41.713 42.297" xml:space="preserve">
<g display="none">
	<g display="inline">
		<g display="none">
		</g>
		<path fill="#222222" d="M20.856,19.592c-18.549,0-33.586,11.061-33.586,24.706S2.308,69.004,20.856,69.004
			s33.586-11.062,33.586-24.706S39.405,19.592,20.856,19.592z M20.856,58.757c-12.565,0-22.752-6.474-22.752-14.459
			S8.291,29.839,20.856,29.839s22.752,6.474,22.752,14.459S33.422,58.757,20.856,58.757z"/>
		<g>
			<path fill="#222222" d="M1.62,16.803c0-8.067,4.966-14.975,12.008-17.832c2.231-0.905,7.229,2.59,7.229,2.571
				c0,0,4.997-3.476,7.229-2.57c7.042,2.857,12.008,9.765,12.008,17.832c0,1.906-0.39,3.926-0.906,5.664
				c2.862,1.386,5.529,2.901,7.691,4.848c1.312-3.247,2.043-6.793,2.043-10.512c0-8.39-3.687-15.914-9.521-21.057
				c-0.012-0.012-0.021-0.023-0.032-0.036c-3.507-3.688-5.982-10.956-5.982-10.956s-0.986,2.809-3.264,2.809
				s-2.353-7.515-2.353-7.515l-1.215,0.835c0.076-0.835-1.366-2.125-1.366-2.125s0.304,4.402-1.821,1.518
				c-2.126-2.884,4.402-6.983,4.402-6.983c-8.577,1.442-12.861,9.611-13.814,10.778c-0.697,0.854-1.02-2.287-1.02-2.287
				c-0.134,0.256-0.359,0.92-0.494,1.471c-0.08,0.331-0.159,0.639-0.312,1.148c-0.338,1.119-0.393,1.275-0.626,1.584
				c-0.642,0.848-0.978-0.816-0.978-0.816c-0.322,0.218-0.575,1.189-0.769,1.575C7.729-9.217,3.837-5.513,3.837-5.513L3.84-5.509
				C-2.874-0.381-7.208,7.703-7.208,16.803c0,3.718,0.729,7.265,2.043,10.512c2.161-1.946,4.715-3.462,7.577-4.848
				C1.896,20.729,1.62,18.708,1.62,16.803z"/>
		</g>
	</g>
</g>
<g display="none">
	<path display="inline" fill="#222222" d="M13.982,5.976c-8.379,0-15.172,6.793-15.172,15.173s6.793,15.173,15.172,15.173
		s15.172-6.793,15.172-15.173S22.361,5.976,13.982,5.976z M13.982,28.356c-3.981,0-7.208-3.228-7.208-7.208
		c0-3.981,3.227-7.208,7.208-7.208c3.98,0,7.208,3.227,7.208,7.208C21.189,25.129,17.962,28.356,13.982,28.356z"/>
	<path display="inline" fill="#222222" d="M1.771,9.686V6.708h-2.879l-11.091,12.334l-0.478,0.033L-23.538,6.708h-2.872
		l0.008,28.954h7.364V23.024l6.328,6.309l0.79,0.011l6.045-6.319v12.638h7.646v-3.051c-2.814-2.997-4.542-7.027-4.542-11.463
		C-2.77,16.712-1.043,12.682,1.771,9.686z"/>
	<path display="inline" fill="#222222" d="M68.078,34.434l-7.789-12.595c7.043-3.981,5.332-15.131,5.332-15.131h-7.34
		c1.021,13.156-7.515,11.05-7.515,11.05V6.722h-7.636v14.196L28.628,6.722l-2.633-0.014v2.771c2.932,3.017,4.739,7.131,4.739,11.67
		c0,4.538-1.808,8.652-4.739,11.67v2.801h7.68V21.532L48.09,35.619h2.589V24.648h2.962l6.407,10.971h8.074L68.078,34.434z"/>
</g>
<g>
	<g>
		<g>
			<path fill-rule="evenodd" clip-rule="evenodd" fill="#222222" d="M7.443,19.256c0-0.069,0.002-0.138,0.003-0.208
				c-0.703-0.366-1.502-0.574-2.351-0.574C2.281,18.474,0,20.754,0,23.565c0,2.812,2.281,5.092,5.096,5.092
				c0.314,0,0.621-0.028,0.92-0.083c0.452-1.587,1.353-2.985,2.554-4.052C7.847,22.915,7.443,21.133,7.443,19.256z M20.74,20.918
				c-8.118,0-14.699,4.786-14.699,10.689s6.581,10.689,14.699,10.689s14.7-4.786,14.7-10.689S28.858,20.918,20.74,20.918z
				 M20.702,38.221c-5.887,0-10.659-2.97-10.659-6.633s4.772-6.633,10.659-6.633s10.659,2.97,10.659,6.633
				S26.589,38.221,20.702,38.221z M36.617,18.743c-0.849,0-1.647,0.208-2.351,0.574c0.001,0.069,0.003,0.138,0.003,0.208
				c0,1.876-0.403,3.66-1.126,5.267c1.201,1.066,2.102,2.465,2.554,4.052c0.299,0.055,0.605,0.083,0.92,0.083
				c2.814,0,5.096-2.279,5.096-5.092C41.713,21.023,39.432,18.743,36.617,18.743z M9.114,24.046
				c1.008-0.868,2.213-1.622,3.569-2.226c-1.332-4.508,1.524-9.963,5.296-9.988c0.875-0.006,1.952,0.3,2.863,0.954
				c0.578-0.597,1.675-0.89,2.512-0.904c3.304-0.057,7.383,4.125,5.709,10.078c1.334,0.627,2.514,1.4,3.493,2.287
				c0.593-1.462,0.921-3.059,0.921-4.733c0-4.088-1.95-7.721-4.972-10.022c-0.399-0.39-1.254-1.47-2.225-4.186
				c-0.269,1.133-1.385,1.23-1.385,1.23s-1.285-1.698-1.271-3.576c-0.263,0.263-0.334,0.519-0.349,0.679
				c0.008,0.104,0.003,0.167,0.003,0.167s-0.014-0.063-0.003-0.167c-0.021-0.248-0.115-0.73-0.536-1.14c0.104,0.984-0.808,1-0.808,1
				S20.684,1.863,23.742,0c-3.938,0.582-6.234,5.152-6.234,5.152s-0.525-0.702-0.347-1.269c-0.536,0.059-0.885,2.614-0.885,2.614
				s0.071-0.721-0.346-1.153c-0.553,2.43-3.464,4.768-3.464,4.768l0.025,0C5.605,16.247,9.253,24.405,9.114,24.046z"/>
		</g>
	</g>
</g>
</svg>
