<?xml version="1.0" encoding="utf-8"?>
<!DOCTYPE svg PUBLIC "-//W3C//DTD SVG 1.1//EN" "http://www.w3.org/Graphics/SVG/1.1/DTD/svg11.dtd">
<svg version="1.1" id="Layer_1" xmlns="http://www.w3.org/2000/svg" xmlns:xlink="http://www.w3.org/1999/xlink" x="0px" y="0px"
	 width="94.531px" height="30.346px" viewBox="0 0 94.531 30.346" enable-background="new 0 0 94.531 30.346" xml:space="preserve">
<g display="none">
	<g display="inline">
		<g display="none">
			<circle display="inline" opacity="0.5" fill="#222222" cx="81.592" cy="21.302" r="12.125"/>
			<circle display="inline" opacity="0.5" fill="#222222" cx="12.939" cy="21.302" r="12.125"/>
		</g>
		<path fill="#222222" d="M47.266,13.617c-18.549,0-33.586,11.061-33.586,24.706s15.037,24.706,33.586,24.706
			s33.586-11.062,33.586-24.706S65.814,13.617,47.266,13.617z M47.266,52.781c-12.565,0-22.752-6.474-22.752-14.459
			S34.7,23.863,47.266,23.863s22.752,6.474,22.752,14.459S59.831,52.781,47.266,52.781z"/>
		<g>
			<path fill="#222222" d="M28.029,10.827c0-8.067,4.966-14.975,12.008-17.832c2.231-0.905,7.229,2.59,7.229,2.571
				c0,0,4.997-3.476,7.229-2.57c7.042,2.857,12.008,9.765,12.008,17.832c0,1.906-0.39,3.926-0.906,5.664
				c2.862,1.386,5.529,2.901,7.691,4.848c1.312-3.247,2.043-6.793,2.043-10.512c0-8.39-3.687-15.914-9.521-21.057
				c-0.012-0.012-0.021-0.023-0.032-0.036c-3.507-3.688-5.982-10.956-5.982-10.956s-0.986,2.809-3.264,2.809
				s-2.353-7.515-2.353-7.515l-1.215,0.835c0.076-0.835-1.366-2.125-1.366-2.125s0.304,4.402-1.821,1.518
				c-2.126-2.884,4.402-6.983,4.402-6.983c-8.577,1.442-12.861,9.611-13.814,10.778c-0.697,0.854-1.02-2.287-1.02-2.287
				c-0.134,0.256-0.359,0.92-0.494,1.471c-0.08,0.331-0.159,0.639-0.312,1.148c-0.338,1.119-0.393,1.275-0.626,1.584
				c-0.642,0.848-0.978-0.816-0.978-0.816c-0.322,0.218-0.575,1.189-0.769,1.575c-2.026,4.037-5.919,7.741-5.919,7.741l0.003,0.004
				C23.535-6.356,19.201,1.728,19.201,10.827c0,3.718,0.729,7.265,2.043,10.512c2.161-1.946,4.715-3.462,7.577-4.848
				C28.306,14.753,28.029,12.733,28.029,10.827z"/>
		</g>
	</g>
	<path display="inline" fill="#222222" d="M82.503,8.564c-2.307,0-4.462,0.644-6.297,1.761c0.019,0.417,0.034,0.834,0.034,1.256
		c0,3.718-0.729,7.264-2.043,10.511c3.365,3.031,5.775,6.658,6.882,10.636c0.467,0.055,0.941,0.086,1.424,0.086
		c6.696,0,12.125-5.428,12.125-12.125C94.628,13.993,89.199,8.564,82.503,8.564z"/>
	<path display="inline" fill="#222222" d="M20.334,22.107C20.334,22.107,20.334,22.107,20.334,22.107
		c-1.313-3.247-2.044-6.793-2.044-10.512c0-0.421,0.02-0.837,0.038-1.254c-1.836-1.119-3.992-1.763-6.3-1.763
		c-6.696,0-12.125,5.429-12.125,12.125c0,6.696,5.429,12.125,12.125,12.125c0.482,0,0.956-0.031,1.423-0.086
		C14.559,28.766,16.968,25.138,20.334,22.107z"/>
</g>
<g>
	<path fill="#222222" d="M40.391,0c-8.379,0-15.172,6.793-15.172,15.173s6.793,15.173,15.172,15.173s15.172-6.793,15.172-15.173
		S48.771,0,40.391,0z M40.391,22.381c-3.981,0-7.208-3.228-7.208-7.208c0-3.981,3.227-7.208,7.208-7.208
		c3.98,0,7.208,3.227,7.208,7.208C47.599,19.153,44.372,22.381,40.391,22.381z"/>
	<path fill="#222222" d="M28.181,3.71V0.732h-2.879L14.21,13.066L13.732,13.1L2.872,0.732H0l0.008,28.954h7.364V17.049l6.328,6.309
		l0.79,0.011l6.045-6.319v12.638h7.646v-3.051c-2.814-2.997-4.542-7.027-4.542-11.463C23.639,10.736,25.366,6.706,28.181,3.71z"/>
	<path fill="#222222" d="M94.487,28.458l-7.789-12.595c7.043-3.981,5.332-15.131,5.332-15.131h-7.34
		c1.021,13.156-7.515,11.05-7.515,11.05V0.746H69.54v14.196L55.037,0.746l-2.633-0.014v2.771c2.932,3.017,4.739,7.131,4.739,11.67
		c0,4.538-1.808,8.652-4.739,11.67v2.801h7.68V15.557l14.415,14.087h2.589V18.673h2.962l6.407,10.971h8.074L94.487,28.458z"/>
</g>
</svg>
